<?xml version="1.0" encoding="UTF-8"?>
<svg id="Layer_1" xmlns="http://www.w3.org/2000/svg" version="1.1" viewBox="0 0 24 16.75">
  <!-- Generator: Adobe Illustrator 29.5.1, SVG Export Plug-In . SVG Version: 2.1.0 Build 141)  -->
  <defs>
    <style>
      .st0 {
        fill: #deb1a8;
      }
    </style>
  </defs>
  <g id="Layer_3">
    <rect class="st0" width="24" height="16.75"/>
  </g>
  <g id="Layer_2">
    <path d="M23,15.29c-.41,0-.75-.34-.75-.75v-1c0-1.24-1.01-2.25-2.25-2.25-1.52,0-2.75-1.23-2.75-2.75s1.23-2.75,2.75-2.75,2.75,1.23,2.75,2.75c0,.71-.27,1.36-.72,1.85,1.03.67,1.72,1.83,1.72,3.15v1c0,.41-.34.75-.75.75ZM20,7.29c-.69,0-1.25.56-1.25,1.25s.56,1.25,1.25,1.25,1.25-.56,1.25-1.25-.56-1.25-1.25-1.25ZM17,15.29c-.41,0-.75-.34-.75-.75v-1c0-2.34-1.91-4.25-4.25-4.25s-4.25,1.91-4.25,4.25v1c0,.41-.34.75-.75.75s-.75-.34-.75-.75v-1c0-2.28,1.34-4.26,3.27-5.19-.78-.69-1.27-1.69-1.27-2.81,0-2.07,1.68-3.75,3.75-3.75s3.75,1.68,3.75,3.75c0,1.12-.49,2.12-1.27,2.81,1.93.93,3.27,2.9,3.27,5.19v1c0,.41-.34.75-.75.75ZM12,3.29c-1.24,0-2.25,1.01-2.25,2.25s1.01,2.25,2.25,2.25,2.25-1.01,2.25-2.25-1.01-2.25-2.25-2.25ZM1,15.29c-.41,0-.75-.34-.75-.75v-1c0-1.32.68-2.48,1.72-3.15-.45-.49-.72-1.14-.72-1.85,0-1.52,1.23-2.75,2.75-2.75s2.75,1.23,2.75,2.75-1.23,2.75-2.75,2.75c-1.24,0-2.25,1.01-2.25,2.25v1c0,.41-.34.75-.75.75ZM4,7.29c-.69,0-1.25.56-1.25,1.25s.56,1.25,1.25,1.25,1.25-.56,1.25-1.25-.56-1.25-1.25-1.25Z"/>
  </g>
</svg>