<?xml version="1.0" encoding="UTF-8"?>
<svg xmlns="http://www.w3.org/2000/svg" version="1.1" viewBox="0 0 116 92">
  <!-- Generator: Adobe Illustrator 29.5.1, SVG Export Plug-In . SVG Version: 2.1.0 Build 141)  -->
  <defs>
    <style>
      .st0 {
        fill: #deb1a8;
      }
    </style>
  </defs>
  <g id="Layer_2">
    <rect class="st0" width="116" height="92"/>
  </g>
  <g id="Layer_1">
    <path d="M114.98,3.25c-.04-.71-.34-1.38-.85-1.88-.5-.5-1.17-.8-1.88-.85-24.7-1.45-44.5,6.02-52.97,19.99-5.63,9.3-5.51,20.67.26,31.48-3.7,4.23-6.28,9.33-7.5,14.82l-9.59-9.6c3.95-7.8,3.92-15.96-.15-22.69-6.2-10.24-20.62-15.74-38.6-14.67-.71.04-1.38.34-1.88.85-.5.5-.8,1.17-.84,1.88C-.08,40.55,5.4,54.97,15.65,61.17c3.34,2.04,7.17,3.12,11.08,3.11,4.05-.04,8.03-1.04,11.63-2.91l12.86,12.83v14.3c0,.77.31,1.51.85,2.06.55.55,1.28.85,2.06.85s1.51-.31,2.06-.85c.55-.54.85-1.28.85-2.06v-14.28c-.02-6.66,2.34-13.1,6.67-18.17,5.43,2.87,11.01,4.32,16.38,4.32,5.26.02,10.42-1.42,14.91-4.15,13.97-8.45,21.44-28.26,19.99-52.96ZM18.66,56.2c-7.9-4.78-12.3-16.13-12-30.67,14.53-.31,25.87,4.09,30.65,11.99,2.75,4.54,2.98,9.87.75,15.3l-12.87-12.88c-.55-.55-1.28-.85-2.06-.85s-1.51.31-2.06.85c-.55.55-.85,1.28-.85,2.06s.31,1.51.85,2.06l12.89,12.89c-5.43,2.24-10.76,2.01-15.3-.75ZM91.98,51.25c-7.14,4.32-15.57,4.45-24.06.44l27.01-27c.27-.27.48-.59.63-.94.15-.35.22-.73.22-1.11s-.08-.76-.22-1.11c-.15-.35-.36-.67-.63-.94-.27-.27-.59-.48-.94-.63-.35-.15-.73-.22-1.11-.22s-.76.08-1.11.22c-.35.15-.67.36-.94.63l-27.01,27.01c-4.01-8.49-3.88-16.92.44-24.05,7.03-11.62,23.76-18.01,45.05-17.32.69,21.26-5.7,38-17.31,45.04Z"/>
  </g>
</svg>