<?xml version="1.0" encoding="UTF-8"?>
<svg id="Layer_1" xmlns="http://www.w3.org/2000/svg" version="1.1" viewBox="0 0 86 104">
  <!-- Generator: Adobe Illustrator 29.5.1, SVG Export Plug-In . SVG Version: 2.1.0 Build 141)  -->
  <defs>
    <style>
      .st0 {
        fill: #deb1a8;
      }
    </style>
  </defs>
  <g id="Layer_2">
    <rect class="st0" y="-.64" width="86" height="105.41"/>
  </g>
  <g id="Layer_11" data-name="Layer_1">
    <path d="M2.61,7.38c.33-1.97,1.35-3.76,2.87-5.05,1.53-1.29,3.46-2,5.46-1.99,2.08,0,3.98.74,5.46,1.98,1.6-1.28,3.59-1.98,5.64-1.98s4.1.74,5.64,1.98c1.53-1.28,3.46-1.98,5.46-1.98s3.93.7,5.46,1.99,2.54,3.08,2.87,5.05c.95,5.82,2.53,16.54,2.53,23.96,0,3.49-.83,6.93-2.42,10.03s-3.9,5.78-6.74,7.82c-1.65,1.19-2.46,2.62-2.46,3.85v.24c.23,2.83,2.58,32.23,2.58,37.48,0,3.43-1.36,6.71-3.78,9.13s-5.71,3.78-9.13,3.78-6.71-1.36-9.13-3.78-3.78-5.71-3.78-9.13c0-5.25,2.35-34.65,2.57-37.48,0-.08.01-.16.01-.24,0-1.23-.81-2.66-2.46-3.85-2.84-2.03-5.15-4.71-6.74-7.82C.91,38.26.08,34.82.08,31.33.08,23.91,1.66,13.19,2.61,7.38ZM31.08,33.27c0,.86-.34,1.68-.95,2.28-.61.61-1.43.95-2.28.95s-1.68-.34-2.28-.95c-.61-.61-.95-1.43-.95-2.28V9.38c0-.69-.27-1.34-.76-1.83-.48-.48-1.14-.76-1.83-.76s-1.34.27-1.83.76c-.48.48-.76,1.14-.76,1.83v23.9c0,.86-.34,1.68-.95,2.28-.61.61-1.43.95-2.28.95s-1.68-.34-2.28-.95c-.61-.61-.95-1.43-.95-2.28V8.85c0-.55-.22-1.07-.6-1.46-.39-.39-.91-.6-1.46-.6-1,0-1.81.71-1.96,1.63-.96,5.86-2.44,16.09-2.44,22.91,0,2.46.58,4.89,1.71,7.08,1.13,2.19,2.76,4.08,4.76,5.52,2.64,1.89,5.15,5.05,5.15,9.09,0,.25,0,.49-.03.76-.25,3.07-2.55,32.05-2.55,36.96,0,1.71.68,3.36,1.89,4.57s2.85,1.89,4.57,1.89,3.36-.68,4.57-1.89c1.21-1.21,1.89-2.85,1.89-4.57,0-4.91-2.31-33.89-2.55-36.96-.02-.25-.03-.51-.03-.76,0-4.05,2.52-7.21,5.15-9.1,2-1.43,3.64-3.32,4.76-5.52,1.13-2.19,1.71-4.62,1.71-7.08,0-6.82-1.49-17.06-2.44-22.91-.08-.46-.32-.88-.68-1.17-.36-.3-.81-.46-1.28-.45-.55,0-1.07.22-1.46.6-.39.39-.6.91-.6,1.46v24.42h.02ZM76.29,6.87v41.9c0,1.52.49,8.6,1.02,16.37l.04.53c.72,10.5,1.53,22.22,1.53,25.09,0,1.71-.68,3.36-1.89,4.57s-2.85,1.89-4.57,1.89-3.36-.68-4.57-1.89-1.89-2.85-1.89-4.57c0-2.54.63-12.88,1.28-22.78.38-5.8.78-11.59,1.18-17.39l.11-1.58c.03-.44-.03-.89-.18-1.3-.15-.42-.38-.8-.68-1.13-.3-.32-.67-.58-1.07-.76-.41-.18-.84-.27-1.29-.27h-7.75c-.51,0-1.01-.2-1.37-.57-.36-.36-.57-.86-.57-1.37v-14.21c0-5.66,2.12-11.11,5.95-15.28,3.83-4.17,9.08-6.75,14.72-7.24h0ZM61.85,52l-.16,2.36c-.24,3.52-.57,8.27-.89,13.19-.64,9.75-1.3,20.4-1.3,23.21,0,3.43,1.36,6.71,3.78,9.13s5.71,3.78,9.13,3.78,6.71-1.36,9.13-3.78,3.78-5.71,3.78-9.13c0-3.12-.81-14.97-1.52-25.19l-.02-.34c-.56-8.19-1.04-15.18-1.04-16.45V3.56c0-1.78-1.45-3.23-3.23-3.23h-1.29c-16.05,0-29.06,13.01-29.06,29.06v14.21c0,2.23.88,4.36,2.46,5.94s3.71,2.46,5.94,2.46c0,0,4.29,0,4.29,0Z"/>
  </g>
</svg>