<?xml version="1.0" encoding="UTF-8"?>
<svg id="Layer_1" xmlns="http://www.w3.org/2000/svg" version="1.1" viewBox="0 0 520.5 192.5">
  <!-- Generator: Adobe Illustrator 29.5.1, SVG Export Plug-In . SVG Version: 2.1.0 Build 141)  -->
  <defs>
    <style>
      .st0 {
        fill: #f0e7c2;
      }
    </style>
  </defs>
  <g id="acdSQG">
    <path class="st0" d="M157.7,0c-2.9,6-5,12.3-6.3,18.9-4.8,23.9-1.2,41,.3,64.3,2.3,33.8-20.9,64-46,83.8s-14,11-17.6,12.4-4.4-.5-6.8-.6c-.2-1,.3-1,.8-1.4,3.3-3,7.7-5.7,11.2-8.8,20.6-19,34.1-48.1,32.9-76.4,0-.6.4-1.9-.5-1.7-5.1,28.2-15.5,59.9-41.4,75.4,1.9-8.1,2.9-16.4,2.5-24.7-1.2-24.8-8.8-41-3.3-67.6C91.4,35.4,122.7,12,157.7,0Z"/>
    <path class="st0" d="M18.4,48.9c2.6,13.8,10.8,27.7,21.5,36.7s13.6,8.5,19.7,13.7c14.5,12.4,25.8,34.8,24.7,54.2-.8,13.8-7.8,24.6-13.5,36.7-.9.1-.4-1.1-.4-1.6.6-4.8,2.2-9.8,2.8-14.7,2.1-18.4-3.3-38.5-16.7-51.6-.4,0-.3.5-.2.7.6,1.5,3.5,5,4.6,6.9,10.1,18.1,14.6,38.3,6.7,58.2-1.9-4.7-3.1-9.5-5.4-14.1-11.5-22.4-30.8-21.7-46-38.3C-6.1,111.5-3.6,81.9,13.2,55.5c1.1-1.7,2.6-4.3,3.8-5.7s.5-1,1.4-.8v-.1Z"/>
  </g>
  <path class="st0" d="M213.1,25.9c9.8,0,16.9,2,21.4,6.1,4.5,4.1,6.7,9.7,6.7,17s-.9,8.3-2.8,12.1c-1.8,3.7-4.9,6.8-9.3,9.1s-10.2,3.5-17.6,3.5h-7.5v27.8h-13.5V25.9h22.6ZM212.2,37.1h-8.1v25.3h6.1c5.5,0,9.7-1,12.7-3s4.5-5.3,4.5-9.9-1.2-7.3-3.7-9.3-6.3-3.1-11.5-3.1Z"/>
  <path class="st0" d="M266,101.4h-13.3V21h13.3v80.4Z"/>
  <path class="st0" d="M303.7,43c7.4,0,13,1.6,16.9,4.9,3.8,3.2,5.8,8.3,5.8,15v38.5h-9.4l-2.6-7.9h-.4c-2.5,3.1-5.1,5.4-7.8,6.8-2.8,1.4-6.5,2.2-11.2,2.2s-9.4-1.4-12.8-4.3-5.1-7.4-5.1-13.4,2.2-10.4,6.5-13.3c4.3-3,10.9-4.6,19.7-5l9.9-.3v-2.9c0-3.7-.9-6.3-2.6-7.8-1.8-1.6-4.2-2.3-7.4-2.3s-5.7.4-8.3,1.2c-2.6.8-5.3,1.8-7.9,3l-4.2-9.3c2.8-1.5,6-2.7,9.7-3.6,3.6-.9,7.4-1.4,11.4-1.4l-.2-.1ZM313.1,74.3l-7,.2c-5.9.2-9.9,1.2-12.2,3-2.3,1.8-3.4,4.2-3.4,7.2s.8,4.7,2.4,5.9c1.6,1.2,3.7,1.7,6.3,1.7,3.9,0,7.2-1.1,9.8-3.3,2.7-2.2,4-5.5,4-9.9v-4.9l.1.1Z"/>
  <path class="st0" d="M371.6,43c6.4,0,11.4,1.7,15.1,5,3.6,3.3,5.4,8.7,5.4,16.1v37.3h-13.3v-34.7c0-4.3-.8-7.5-2.5-9.7s-4.4-3.2-8-3.2c-5.4,0-9,1.7-11,5.1-2,3.4-3,8.2-3,14.5v28h-13.3v-57.3h10.3l1.9,7.5h.7c1.8-3,4.4-5.1,7.6-6.5s6.6-2.1,10.2-2.1h-.1Z"/>
  <path class="st0" d="M429,91.8c1.6,0,3.2-.2,4.8-.5,1.6-.3,3-.7,4.4-1.1v9.9c-1.4.7-3.2,1.3-5.5,1.7-2.3.4-4.6.6-7.1.6s-6.3-.5-8.9-1.6-4.7-2.9-6.3-5.6c-1.6-2.7-2.3-6.5-2.3-11.3v-29.8h-7.7v-5.8l8.5-4.7,4.2-12.2h8.4v12.6h16.3v10h-16.3v29.7c0,2.7.7,4.7,2.2,6,1.4,1.3,3.3,2,5.4,2l-.1.1Z"/>
  <path class="st0" d="M241.2,139c0,7.3-.9,8.3-2.8,12.1-1.8,3.7-4.9,6.8-9.3,9.1-4.4,2.3-10.2,3.5-17.6,3.5h-7.5v27.8h-13.5v-75.5h22.5l.1-.1c9.8,0,16.9,2,21.4,6.1s6.7,9.7,6.7,17ZM227.4,139.5c0-4.6-1.2-7.3-3.7-9.3s-6.3-3.1-11.5-3.1h-8.1v25.3h6.1c5.5,0,9.7-1,12.7-3s4.5-5.3,4.5-9.9Z"/>
  <g>
    <path class="st0" d="M294,152.9v38.5h-9.4l-2.6-7.9h-.4c-2.5,3.1-5.1,5.4-7.8,6.8-2.8,1.4-6.5,2.2-11.2,2.2s-9.4-1.4-12.8-4.3-5.1-7.4-5.1-13.4,2.2-10.4,6.5-13.3c4.3-3,10.9-4.6,19.7-5l9.9-.3v-2.9c0-3.7-.9-6.3-2.6-7.8-1.8-1.6-4.2-2.3-7.4-2.3s-5.7.4-8.3,1.2-5.3,1.8-7.9,3l-4.2-9.3c2.8-1.5,6-2.7,9.7-3.6,3.6-.9,7.4-1.4,11.4-1.4l-.2-.1c7.4,0,13,1.6,16.9,4.9,3.8,3.2,5.8,8.3,5.8,15ZM280.6,164.3h.1l-.1-.1v.1l-6.9.2c-5.9.2-9.9,1.2-12.2,3s-3.4,4.2-3.4,7.2.8,4.7,2.4,5.9,3.7,1.7,6.3,1.7c3.9,0,7.2-1.1,9.8-3.3,2.7-2.2,4-5.5,4-9.9v-4.8Z"/>
    <polygon class="st0" points="280.7 164.3 280.6 164.3 280.6 164.2 280.7 164.3"/>
  </g>
  <path class="st0" d="M317.6,191.4h-13.3v-80.4h13.3v80.4Z"/>
  <path class="st0" d="M353.4,133c7.7,0,13.8,2.3,18.2,6.9,4.5,4.6,6.7,11,6.7,19.1v6.8h-37.9c.1,5.2,1.6,9.3,4.3,12.1,2.8,2.9,6.6,4.3,11.4,4.3s7-.4,9.9-1.1c3-.7,6-1.8,9.1-3.2v10.7c-2.8,1.3-5.7,2.3-8.8,3-3,.6-6.7,1-10.9,1s-10.6-1.1-14.9-3.2c-4.3-2.2-7.7-5.4-10.1-9.7s-3.6-9.8-3.6-16.3c0-9.8,2.4-17.3,7.2-22.4,4.8-5.1,11.2-7.7,19.2-7.7l.2-.3ZM353.4,142.9c-3.6,0-6.5,1.1-8.7,3.4-2.2,2.3-3.5,5.7-3.9,10.2h24.6c0-3.9-1.1-7.2-3-9.8s-5-3.9-9-3.9v.1Z"/>
  <path class="st0" d="M409.8,181.8c1.6,0,3.2-.2,4.8-.5,1.6-.3,3-.7,4.4-1.1v9.9c-1.4.7-3.2,1.3-5.5,1.7s-4.6.6-7.1.6-6.3-.5-8.9-1.6-4.7-2.9-6.3-5.6c-1.6-2.7-2.3-6.5-2.3-11.3v-29.8h-7.7v-5.8l8.5-4.7,4.2-12.2h8.4v12.6h16.3v10h-16.3v29.7c0,2.7.7,4.7,2.2,6,1.4,1.3,3.3,2,5.4,2l-.1.1Z"/>
  <path class="st0" d="M452.8,181.8c1.6,0,3.2-.2,4.8-.5,1.6-.3,3-.7,4.4-1.1v9.9c-1.4.7-3.2,1.3-5.5,1.7s-4.6.6-7.1.6-6.3-.5-8.9-1.6-4.7-2.9-6.3-5.6c-1.6-2.7-2.3-6.5-2.3-11.3v-29.8h-7.7v-5.8l8.5-4.7,4.2-12.2h8.4v12.6h16.3v10h-16.3v29.7c0,2.7.7,4.7,2.2,6,1.4,1.3,3.3,2,5.4,2l-.1.1Z"/>
  <path class="st0" d="M495.5,133c7.7,0,13.8,2.3,18.2,6.9,4.5,4.6,6.7,11,6.7,19.1v6.8h-37.9c.1,5.2,1.6,9.3,4.3,12.1,2.8,2.9,6.6,4.3,11.4,4.3s7-.4,9.9-1.1c3-.7,6-1.8,9.1-3.2v10.7c-2.8,1.3-5.7,2.3-8.8,3-3,.6-6.7,1-10.9,1s-10.6-1.1-14.9-3.2c-4.3-2.2-7.7-5.4-10.1-9.7s-3.6-9.8-3.6-16.3c0-9.8,2.4-17.3,7.2-22.4,4.8-5.1,11.2-7.7,19.2-7.7l.2-.3ZM495.5,142.9c-3.6,0-6.5,1.1-8.7,3.4-2.2,2.3-3.5,5.7-3.9,10.2h24.6c0-3.9-1.1-7.2-3-9.8s-5-3.9-9-3.9v.1Z"/>
</svg>